<svg xmlns="http://www.w3.org/2000/svg" width="36" height="36">
    <path fill="#F7942F" fill-rule="evenodd" d="M31.078 18.993c-.735-.057-1.478-.009-2.25-.009v10.562c-.001 2.404-1.231 3.641-3.622 3.641-6.323.001-12.646-.002-18.969.009-.311 0-.674.04-.924.2-1.318.844-2.607 1.731-3.907 2.604H0V13.922c.641-1.882 1.968-2.594 3.929-2.553 3.627.076 7.257.022 10.886.022h.794V7.314c.001-1.437.247-1.689 1.654-1.689 1.006 0 2.014.03 3.019-.01.822-.032 1.512.082 1.695 1.018 1.947-.389 2.819-1.213 2.755-2.774C24.654 1.917 25.438.63 27.281 0h1.266c1.882.638 2.68 1.969 2.537 3.925-.04.55-.006 1.105-.006 1.7.39 0 .691-.003.991.001 1.445.016 2.572.627 3.343 1.845.244.385.395.83.588 1.248v7.172c-.796 2.374-2.499 3.29-4.922 3.102zM19.78 7.79h-2.026v9.052h2.026V7.79zm.603 11.203c-1.077-.034-2.156-.008-3.233-.009-1.236-.001-1.539-.3-1.54-1.523-.002-1.304-.001-2.607-.001-3.961h-.703c-3.773 0-7.545-.001-11.317.001-1.17 0-1.479.316-1.479 1.512l-.001 17.15v.802c.724-.478 1.364-.854 1.951-1.301.59-.449 1.215-.601 1.954-.599 6.397.023 12.793.013 19.189.013 1.193 0 1.515-.313 1.515-1.479.002-3.304.001-6.607-.001-9.911 0-.224-.02-.448-.032-.713-1.664.063-3.254.042-4.708-.905-.286.813-.877.946-1.594.923zM32.047 7.738c-.562-.015-1.124-.001-1.686-.004-1.04-.006-1.387-.351-1.391-1.388-.004-.936.001-1.873-.002-2.809-.002-.927-.387-1.434-1.072-1.423-.661.011-1.03.504-1.037 1.387v.421c-.022 2.198-1.293 3.884-3.412 4.523-.49.148-.982.292-1.51.449 0 1.773.071 3.531-.026 5.279-.058 1.066.415 1.706 1.251 2.128.55.277 1.182.527 1.784.542 2.386.063 4.775.044 7.163.023 1.042-.009 1.761-.737 1.774-1.784.022-1.849.022-3.699 0-5.548-.013-1.078-.742-1.769-1.836-1.796zm-8.572 14.201c.69.036 1.148.479 1.128 1.084-.019.582-.458 1.005-1.121 1.018-1.007.019-2.014.006-3.021.006h-6.114l-8.574-.001c-.211 0-.427.021-.631-.018-.579-.11-.924-.47-.91-1.068.014-.563.355-.902.903-1.004.205-.038.421-.018.631-.018l17.288-.001c.14 0 .281-.005.421.002zm-11.382-2.113c-1.124.008-2.247.002-3.371.002-1.077 0-2.154.006-3.231-.002-.798-.006-1.287-.434-1.267-1.084.019-.627.487-1.018 1.26-1.021 2.2-.006 4.401-.006 6.602 0 .799.003 1.288.433 1.268 1.083-.021.623-.492 1.016-1.261 1.022zm-6.748 6.336c1.101-.019 2.202-.006 3.303-.006h5.763l8.714.001c.21 0 .428-.019.629.029.51.121.826.455.842.987.017.565-.297.927-.836 1.06-.223.055-.466.031-.7.031-5.762.002-11.525.002-17.287.002-.141 0-.282.005-.422-.002-.69-.037-1.146-.479-1.127-1.086.018-.58.46-1.005 1.121-1.016z"/>
</svg>
