<svg xmlns="http://www.w3.org/2000/svg" width="30" height="30">
    <path fill="#F7942F" fill-rule="evenodd" d="M15 30C6.729 30 0 23.271 0 15S6.729 0 15 0s15 6.729 15 15-6.729 15-15 15zm0-27.568C8.07 2.432 2.432 8.07 2.432 15S8.07 27.567 15 27.567 27.568 21.93 27.568 15C27.568 8.07 21.93 2.432 15 2.432zm-1.19 17.545c-.235.223-.536.334-.837.334-.317 0-.633-.124-.871-.368l-4.541-4.662c-.468-.481-.458-1.251.023-1.719.482-.47 1.251-.459 1.72.022l3.703 3.803 7.764-7.364c.488-.463 1.258-.441 1.72.046.462.487.442 1.257-.046 1.719l-8.635 8.189z"/>
</svg>
