<svg xmlns="http://www.w3.org/2000/svg" width="45" height="41">
    <path fill="#FFF" fill-rule="evenodd" d="M43.624 36.8c-1.442 2.489-4.005 3.976-6.86 3.976H8.229c-2.846 0-5.391-1.468-6.814-3.912-1.441-2.471-1.451-5.435-.027-7.925L15.691 4.182C17.105 1.71 19.659.224 22.524.224c2.864 0 5.419 1.477 6.832 3.967l14.286 24.73c1.423 2.462 1.414 5.408-.018 7.879zm-3.075-6.082L26.255 5.969c-.776-1.359-2.171-2.17-3.731-2.17-1.569 0-2.956.802-3.731 2.161L4.489 30.708c-.784 1.368-.775 2.992.009 4.35.776 1.341 2.171 2.134 3.722 2.134h28.535c1.569 0 2.973-.812 3.767-2.179.785-1.359.794-2.964.027-4.295zm-16.274-6.876c-.054.574-.054 1.094-.054 1.66-.046.939-.776 1.659-1.706 1.659-.931 0-1.651-.675-1.706-1.605-.155-2.744-.31-5.435-.465-8.179-.055-.721-.101-1.45-.155-2.171 0-1.194.675-2.179 1.76-2.489 1.086-.255 2.171.264 2.636 1.286.156.364.21.729.21 1.14-.054 1.139-.155 2.279-.21 3.419-.1 1.76-.209 3.52-.31 5.28zm-1.76 4.879c1.249 0 2.28 1.03 2.226 2.334.054 1.185-1.031 2.225-2.226 2.225-1.241 0-2.281-1.04-2.281-2.28 0-1.24 1.04-2.279 2.281-2.279z"/>
</svg>
